<!--?xml version="1.0" standalone="no"?-->
              <svg id="sw-js-blob-svg" viewBox="0 0 100 100" xmlns="http://www.w3.org/2000/svg" version="1.1">
                    <defs> 
                        <linearGradient id="sw-gradient" x1="0" x2="1" y1="1" y2="0">
                            <stop id="stop1" stop-color="rgba(0, 51, 102, 1)" offset="0%"></stop>
                            <stop id="stop2" stop-color="rgba(0, 51, 102, 0.63)" offset="100%"></stop>
                        </linearGradient>
                    </defs>
                <path fill="url(#sw-gradient)" d="M22,-28.7C29.8,-24.6,38.3,-19.9,41.4,-12.9C44.5,-5.8,42.2,3.6,38.8,12.2C35.5,20.9,31.1,28.8,24.4,33.3C17.8,37.9,8.9,39.1,1.2,37.5C-6.6,35.9,-13.1,31.5,-20.1,27C-27,22.6,-34.3,18,-36.1,11.9C-38,5.7,-34.4,-2.2,-31.6,-10.1C-28.8,-18,-26.8,-26.1,-21.6,-31C-16.5,-35.9,-8.3,-37.8,-0.6,-37C7.1,-36.2,14.2,-32.8,22,-28.7Z" width="100%" height="100%" transform="translate(50 50)" stroke-width="0" style="transition: 0.3s;"></path>
              </svg>